# xmcd
#
# Track frame offsets:
#	150
#	16112
#	28380
#	41598
#	55496
#	67126
#	86280
#	97929
#	110637
#	124014
#	140137
#	153509
#	164818
#	181760
#	194240
#	205888
#	216925
#	228444
#	242727
#	261284
#
# Disc length: 3752 seconds
#
# Revision: 0
# Processed by: cddbd v1.5.2PL0 Copyright (c) Steve Scherf et al.
# Submitted via: audiograbber 1.83.01
#
DISCID=2f0ea614
DTITLE=Various Artist - 20 Country Hits
DYEAR=1977
DGENRE=Country
TTITLE0=Johnny Cash - A Boy Named Sue
TTITLE1=Johnny Horton - North To Alaska
TTITLE2=Jimmy Dean - Big Bad John
TTITLE3=Tammy Wynette and Tina - No Charge
TTITLE4=Charlie Rich - The Most Beautiful Girl
TTITLE5=Marty Robbins - El Paso
TTITLE6=Tammy Wynette - Stand By Your Man
TTITLE7=Freddy Weller - Games People Play
TTITLE8=Charley Pride - Detroit City
TTITLE9=Roger Whittaker - The Last Farewell
TTITLE10=Bellamy Brothers - Let Your Love Flow
TTITLE11=Johnny Cash - Ring Of Fire
TTITLE12=Emmylou Harris - Together Again
TTITLE13=Jim Reeves - Distant Drums
TTITLE14=Dickey Lee - Never Ending Song Of Love
TTITLE15=Don Gibson - Oh Lonesome Me
TTITLE16=Dolly Parton - Jolene
TTITLE17=Olivia Newton-John - Banks Of The Ohio
TTITLE18=Bobbie Gentry - Ode To Billy Joe
TTITLE19=Pussycat - Mississippi
EXTD=
EXTT0=
EXTT1=
EXTT2=
EXTT3=
EXTT4=
EXTT5=
EXTT6=
EXTT7=
EXTT8=
EXTT9=
EXTT10=
EXTT11=
EXTT12=
EXTT13=
EXTT14=
EXTT15=
EXTT16=
EXTT17=
EXTT18=
EXTT19=
PLAYORDER=
